<svg xmlns="http://www.w3.org/2000/svg" viewBox="0 0 512 512">
  <defs>
    <linearGradient id="bg" x1="0" y1="0" x2="1" y2="1">
      <stop offset="0" stop-color="#272039"/>
      <stop offset="1" stop-color="#0d0f14"/>
    </linearGradient>
    <linearGradient id="spk" x1="0" y1="0" x2="1" y2="1">
      <stop offset="0" stop-color="#5eead4"/>
      <stop offset="0.55" stop-color="#a78bfa"/>
      <stop offset="1" stop-color="#f0abfc"/>
    </linearGradient>
    <radialGradient id="glow" cx="0.5" cy="0.5" r="0.5">
      <stop offset="0" stop-color="#8be9fd" stop-opacity="0.5"/>
      <stop offset="1" stop-color="#8be9fd" stop-opacity="0"/>
    </radialGradient>
  </defs>

  <rect width="512" height="512" rx="118" fill="url(#bg)"/>
  <circle cx="372" cy="160" r="125" fill="url(#glow)"/>

  <g transform="translate(150,180) scale(5.4)">
    <path transform="translate(1.3,1.7)" d="M0 0 L0 34 L9.5 25 L15.5 38 L20 36 L14 23.5 L27 23.5 Z" fill="#000" fill-opacity="0.33"/>
    <path d="M0 0 L0 34 L9.5 25 L15.5 38 L20 36 L14 23.5 L27 23.5 Z" fill="#fff"/>
  </g>

  <path transform="translate(372,160) scale(3.9)" d="M0 -14 C2.2 -4.2 4.2 -2.2 14 0 C4.2 2.2 2.2 4.2 0 14 C-2.2 4.2 -4.2 2.2 -14 0 C-4.2 -2.2 -2.2 -4.2 0 -14 Z" fill="url(#spk)"/>
  <path transform="translate(138,158) scale(1.25)" d="M0 -14 C2.2 -4.2 4.2 -2.2 14 0 C4.2 2.2 2.2 4.2 0 14 C-2.2 4.2 -4.2 2.2 -14 0 C-4.2 -2.2 -2.2 -4.2 0 -14 Z" fill="url(#spk)" opacity="0.92"/>
</svg>
